<?xml version="1.0"?>
<svg xmlns="http://www.w3.org/2000/svg" xmlns:xlink="http://www.w3.org/1999/xlink" xmlns:svgjs="http://svgjs.com/svgjs" version="1.1" width="512" height="512" x="0" y="0" viewBox="0 0 512.077 512.077" style="enable-background:new 0 0 512 512" xml:space="preserve" class=""><g><g xmlns="http://www.w3.org/2000/svg"><g><g><g><path d="m424.271 468.132c19.891 0 33.578-20.194 25.973-38.573-6.882-16.631-17.214-28.755-4.601-57.023 22.288-49.951 10.291-76.443-9.43-108.515-33.432-54.371-8.989-82.141-21.99-129.241-46.81-169.598-313.825-169.609-360.639 0-13 47.101 11.443 74.87-21.99 129.241-19.721 32.072-31.718 58.564-9.43 108.515 12.613 28.269 2.281 40.393-4.601 57.023-7.605 18.379 6.082 38.573 25.973 38.573z" fill="#735351" data-original="#735351" style="" class=""/><path d="m445.643 372.536c22.288-49.951 10.291-76.443-9.43-108.515-33.432-54.372-8.989-82.141-21.99-129.241-24.898-90.21-112.097-132.44-195.321-126.685 73.243 5.064 143.409 47.294 165.322 126.685 13 47.101-11.443 74.87 21.99 129.241 19.721 32.072 31.718 58.563 9.43 108.515-12.613 28.269-2.281 40.393 4.601 57.023 7.605 18.379-6.082 38.573-25.973 38.573h30c19.891 0 33.578-20.194 25.973-38.573-6.883-16.631-17.216-28.755-4.602-57.023z" fill="#664442" data-original="#664442" style="" class=""/><g><g><ellipse cx="370.131" cy="270.684" fill="#fac8a2" rx="30.381" ry="30.523" data-original="#fac8a2" style=""/></g><g><ellipse cx="97.677" cy="270.684" fill="#fac8a2" rx="30.381" ry="30.523" data-original="#fac8a2" style=""/></g></g><path d="m396.548 504.577c49.947 0 90.437-40.49 90.437-90.437v-124.396h-59.545v93.575c0 40.028-53.987 56.095-75.854 22.467-24.969-38.397-68.253-63.79-117.468-63.79h-.426c-77.332 0-140.022 62.69-140.022 140.022v22.559z" fill="#8669a9" data-original="#ff80b3" style="" class=""/><g fill="#ff6ba7"><path d="m321.585 405.785c11.541 17.747 32.027 21.653 48.802 15.501-7.248-2.817-13.849-7.884-18.802-15.501-24.969-38.397-68.253-63.79-117.468-63.79h-.426c-4.993 0-9.925.262-14.784.772 43.024 4.518 80.244 28.518 102.678 63.018z" fill="#8669a9" data-original="#ff6ba7" style="" class=""/><path d="m456.985 289.744v124.396c0 49.947-40.49 90.438-90.438 90.438h30c49.947 0 90.438-40.49 90.438-90.438v-124.396z" fill="#8669a9" data-original="#ff6ba7" style="" class=""/></g><path d="m233.958 448.788h-.108c-19.618 0-35.521-15.904-35.521-35.521v-57.491h71.151v57.491c0 19.618-15.904 35.521-35.522 35.521z" fill="#ffd8ba" data-original="#ffd8ba" style="" class=""/><g><path d="m161.435 105.073c-4.497 45.751-27.728 50.849-42.074 55.825-6.878 2.386-11.472 8.911-11.472 16.221v86.505c0 69.919 56.419 126.6 126.014 126.6 69.596 0 126.014-56.681 126.014-126.6v-80.477c0-9.743-8.053-17.454-17.747-17.169-15.173.445-40.366.56-59.885-18.765-24.882-24.636-39.273-15.864-65.241-16.457-32.465-.741-45.9-15.867-51.345-26.497-1.037-2.027-4.041-1.454-4.264.814z" fill="#ffd8ba" data-original="#ffd8ba" style="" class=""/></g></g></g><path d="m442.984 182.209-5.589 25.834-9.305-2.013c-10.025-2.169-18.947 6.734-16.799 16.764 5.806 14.037 11.172 37.612 26.609 43.898v22.676h37.079v-23.992c4.818-3.85 8.53-9.296 10.553-15.271 7.607-17.558 11.988-36.371 15.891-55.053 6.402-28.272-52.366-40.92-58.439-12.843z" fill="#ffd8ba" data-original="#ffd8ba" style="" class=""/><g><path d="m233.904 355.694c21.138 0 38.273-17.135 38.273-38.273v-5.657c0-6.666-5.404-12.069-12.069-12.069h-52.408c-6.666 0-12.069 5.404-12.069 12.069v5.657c0 21.137 17.135 38.273 38.273 38.273z" fill="#ffffff" data-original="#ffffff" style=""/><g><path d="m268.572 333.64c-6.106 13.027-19.33 22.053-34.668 22.053-15.338 0-28.562-9.026-34.668-22.053 9.807-8.981 22.237-9.471 34.668-9.471s24.861.491 34.668 9.471z" fill="#e86d6d" data-original="#e86d6d" style=""/></g></g></g><g><g><path d="m272.139 189.977c13.51-1.278 25.541 5.848 25.773 5.988 3.771 2.056 7.204 1.234 10.298-2.467 2.171-3.527 1.072-8.147-2.455-10.319-.658-.405-16.337-9.905-35.032-8.134-4.124.391-7.15 4.05-6.759 8.174.392 4.123 4.048 7.156 8.175 6.758z" fill="#000000" data-original="#000000" style="" class=""/><path d="m203.81 249.81v14.037c.344 9.931 14.659 9.923 15 0v-14.037c-1.971-47.468-69.591-47.431-71.544 0v14.037c.344 9.931 14.659 9.923 15 0v-14.037c1.144-27.564 40.41-27.543 41.544 0z" fill="#000000" data-original="#000000" style="" class=""/><path d="m284.771 214.038c-19.725 0-35.771 16.047-35.771 35.772v14.037c.344 9.931 14.659 9.923 15 0v-14.037c1.144-27.563 40.41-27.543 41.543 0v14.037c.344 9.931 14.659 9.923 15 0v-14.037c0-19.725-16.048-35.772-35.772-35.772z" fill="#000000" data-original="#000000" style="" class=""/><path d="m279.677 311.763c0-10.791-8.779-19.57-19.569-19.57h-52.408c-10.791 0-19.569 8.779-19.569 19.57-.275 8.509.577 16.972 4.204 24.811 14.895 34.968 68.2 34.965 83.136.008 3.628-7.841 4.481-16.307 4.206-24.819zm-70.511 23.94c6.797-3.682 15.051-4.034 24.739-4.034 9.687 0 17.942.353 24.739 4.034-14.117 17.499-37.7 15.892-49.478 0zm55.206-13.942c-9.378-4.607-19.78-5.092-30.468-5.092-10.687 0-21.089.485-30.468 5.093-.453-3.192-.39-6.76-.305-9.998 0-2.52 2.05-4.57 4.569-4.57h52.408c2.52 0 4.569 2.05 4.569 4.57.085 3.238.147 6.806-.305 9.997z" fill="#000000" data-original="#000000" style="" class=""/><path d="m106.864 422.127c-3.837-1.568-8.213.271-9.78 4.104-4.536 11.097-7.671 22.606-9.381 34.4h-44.165c-14.145 0-24.515-14.982-19.042-28.206 9.269-22.4 15.169-39.081 4.52-62.947-20.916-46.876-10.028-70.634 8.969-101.53 34.127-55.051 10.546-80.773 22.829-131.174 20.157-80.393 105.654-128.098 186.99-121.237 31.162 2.068 60.958 11.053 86.167 25.985 8.344 4.94 15.988-7.964 7.645-12.906-55.305-32.758-127.692-37.77-188.909-13.078-53.69 21.655-91.46 63.294-106.351 117.246-5.43 19.671-4.716 35.971-4.025 51.734 1.003 22.911 1.951 44.552-17.124 75.575-20.168 32.8-33.703 62.131-9.89 115.5 8.856 19.846 3.001 32.534-4.682 51.099-9.474 22.895 8.357 48.941 32.903 48.941h42.767c-.408 9.629-.135 19.31-.135 28.945 0 9.697 15 9.697 15 0v-22.559c0-17.344 3.297-34.203 9.799-50.11 1.567-3.836-.271-8.214-4.105-9.782z" fill="#000000" data-original="#000000" style="" class=""/><path d="m492.532 252.814c8.02-18.605 12.579-38.741 16.222-56.174 2.135-9.539-.95-18.706-8.693-25.819-11.275-10.358-30.847-14.656-45.525-9.996-10.109 3.208-16.815 10.24-18.883 19.798l-4.002 18.503c-2.125-.516-4.496-.924-6.614-.921.04-4.516.237-9.025.441-13.688 4.912-45.575-14.94-95.779-48.238-128.339-6.853-6.862-17.466 3.739-10.613 10.6 30.322 29.838 48.444 74.844 43.864 117.084-.288 6.6-.585 13.39-.405 20.413-4.956 4.789-8.556 14.547-5.726 21.386 6.254 15.54 11.023 35.889 26.04 45.568v11.016c-4.798-.551-10.46 1.653-10.46 7.5v93.575c0 18.039-13.127 28.333-24.368 31.666-11.238 3.333-27.854 1.852-37.698-13.289-9.418-14.483-21.537-27.405-35.395-37.811 16.968-15.139 30.08-34.545 37.651-56.527 23.709 6.498 47.883-12.103 47.883-36.675 0-21.612-19.005-39.464-40.594-37.926v-49.611c0-13.632-11.804-25.104-25.467-24.666-12.77.371-36.54 1.073-54.388-16.599-21.585-21.371-37.684-20.298-54.727-19.164-4.919.327-10.005.665-15.62.538-27.896-.637-39.782-12.543-44.841-22.42-4.36-8.506-17.47-6.006-18.404 3.503-2.426 26.531-12.726 41.025-37.067 49.471-9.877 3.426-16.514 12.793-16.514 23.307v55.639c-21.576-1.534-40.594 16.308-40.594 37.926 0 24.551 24.172 43.174 47.883 36.675 7.57 21.978 20.68 41.382 37.643 56.52-10.343 7.743-19.613 16.794-27.643 27.002-5.886 7.484 5.629 17.106 11.79 9.273 8.037-10.218 17.458-19.147 28.052-26.597 10.162 7.144 21.355 12.904 33.306 17.007v22.703c0 23.722 19.299 43.021 43.021 43.021h.108c23.722 0 43.021-19.299 43.021-43.021v-22.702c11.95-4.102 23.142-9.862 33.303-17.004 13.794 9.722 25.832 22.193 35.015 36.314 11.811 18.164 33.216 25.816 54.538 19.492 21.325-6.323 35.104-24.398 35.104-46.047v-86.075h44.546v116.896c0 45.732-37.206 82.938-82.938 82.938-9.697 0-9.697 15 0 15 54.003 0 97.938-43.935 97.938-97.938v-124.395c0-6.466-6.924-8.334-12.006-7.5v-13.505c4.448-4.352 7.955-9.885 10.054-15.925zm-125.113-4.993c38.073.167 30.554 51.865-3.211 45.103 3.318-14.898 3.211-45.103 3.211-45.103zm-269.742 45.886c-12.617 0-22.881-10.328-22.881-23.023 0-13.518 12.162-24.453 25.594-22.863 0 15.178-.114 30.18 3.211 45.104-1.923.516-3.917.782-5.924.782zm164.303 119.56c0 15.451-12.57 28.021-28.021 28.021h-.108c-15.451 0-28.021-12.57-28.021-28.021v-18.525c18.393 3.969 37.76 3.969 56.151 0v18.525zm-28.076-30.542c-65.349 0-118.515-53.428-118.515-119.101v-86.505c0-5.487 4.381-8.458 8.91-9.976 13.431-4.505 35.008-11.742 42.617-48.139 14.651 15.819 36.713 18.948 49.957 19.25 6.286.144 11.956-.234 16.959-.567 50.306-6.243 35.124 38.948 108.559 35.789 6.086.396 9.429 3.621 10.027 9.672v80.477c.001 65.672-53.165 119.1-118.514 119.1zm236.392-123.208c-1.781 1.423-2.817 3.579-2.817 5.858v16.868h-22.079v-15.552c0-3.05-1.847-5.796-4.671-6.946-13.375-5.447-17.516-27.478-22.199-39.064-.597-4.395 3.492-8.295 7.974-7.321l9.306 2.013c4.558.547 7.531-1.368 8.917-5.745l5.588-25.834c.338-1.565 1.369-6.327 8.76-8.673 9.629-3.056 23.463-.03 30.839 6.745 3.791 3.483 5.164 7.254 4.196 11.528-4.267 18.862-7.399 53.001-23.814 66.123z" fill="#000000" data-original="#000000" style="" class=""/></g><path d="m170.162 196.205c.119-.072 12.046-7.549 25.601-6.593 4.132.292 7.718-2.822 8.009-6.953.294-4.133-2.829-7.721-6.953-8.009-18.731-1.321-34.178 8.554-34.826 8.975-3.474 2.256-4.461 6.901-2.205 10.375 1.32 2.033 5.689 5.039 10.374 2.205z" fill="#000000" data-original="#000000" style="" class=""/></g></g></g></svg>
